# xmcd
#
# Track frame offsets: 
#        182
#        17102
#        34600
#        47425
#        60102
#        73270
#        91537
#        105382
#        120642
#        136270
#        149862
#        168445
#        183827
#        195757
#
# Disc length: 2807 seconds
#
# Revision: 0
# Processed by: cddbd v1.5.1PL0 Copyright (c) Steve Scherf et al.
# Submitted via: ExactAudioCopy v0.95a3
#
DISCID=ae0af50e
DTITLE=Various Artist - Todays Greatest Country
DYEAR=1994
DGENRE=Country
TTITLE0=Dont' let Our Love Start-Vince Gill
TTITLE1=Some Kind Of Trouble-Tanya Tucker
TTITLE2=Everything And More-Jim Witter
TTITLE3=Fortune Smiled On Me-Cassandra Yasik
TTITLE4=The Dirt Road-Sawyer Brown
TTITLE5=I Wish I Were Only Lonely-Michelle Wright
TTITLE6=Five O'Clock World-Hal Ketchum
TTITLE7=Jealous Bone-Patty Loveless
TTITLE8=She's Not Cryin' Anymore-Billy Ray Cyrus
TTITLE9=Way Beyond The Blue-Anita Perras
TTITLE10=Baby Horse Blue-One Horse Blue
TTITLE11=Fortunate Home-Tim Thorney
TTITLE12=Line On Love-John Michael Montgomery
TTITLE13=Sacred Ground-McBride and The Ride
EXTD=
EXTT0=
EXTT1=
EXTT2=
EXTT3=
EXTT4=
EXTT5=
EXTT6=
EXTT7=
EXTT8=
EXTT9=
EXTT10=
EXTT11=
EXTT12=
EXTT13=
PLAYORDER=
